<svg height="512pt" fill="#ff0bf3" viewBox="0 -17 512 512" width="512pt" xmlns="http://www.w3.org/2000/svg"><path d="m161.152344 381.320312 91.488281 92.644532c2.898437 2.9375 6.859375 4.59375 10.988281 4.59375h.003906c4.128907 0 8.089844-1.652344 10.992188-4.589844l91.542969-92.609375c-28.789063-23.902344-64.691407-36.929687-102.53125-36.929687-37.816407 0-73.699219 13.015624-102.484375 36.890624zm0 0"/><path d="m263.726562 233.5c67.21875 0 130.972657 24.171875 181.046876 68.335938 8.984374-9.085938 15.808593-15.988282 15.808593-15.988282 2.890625-2.929687 4.496094-6.886718 4.460938-11.003906-.035157-4.050781-1.667969-7.917969-4.53125-10.78125l32.246093-32.246094c4.398438-4.402344 4.398438-11.539062 0-15.941406-7.101562-7.101562-2.074218-19.242188 7.96875-19.242188 6.226563 0 11.273438-5.046874 11.273438-11.273437v-61.042969c0-6.226562-5.046875-11.273437-11.273438-11.273437-10.042968 0-15.070312-12.140625-7.96875-19.242188 4.398438-4.402343 4.398438-11.539062 0-15.941406l-43.167968-43.164063c-4.402344-4.402343-11.539063-4.402343-15.941406 0-7.101563 7.101563-19.242188 2.070313-19.242188-7.972656 0-6.222656-5.046875-11.269531-11.273438-11.269531h-61.042968c-6.226563 0-11.273438 5.046875-11.273438 11.269531 0 10.042969-12.140625 15.074219-19.242187 7.972656-4.402344-4.402343-11.539063-4.402343-15.941407 0l-43.164062 43.164063c-4.402344 4.402344-4.402344 11.539063 0 15.941406 7.097656 7.101563 2.070312 19.242188-7.972656 19.242188-6.226563 0-11.273438 5.046875-11.273438 11.273437v61.042969c0 .050781.007813.101563.007813.148437-10.957031 1.179688-21.78125 2.984376-32.429688 5.40625.574219-.726562 1.128907-1.46875 1.664063-2.222656-.085938-1.097656-.144532-2.207031-.144532-3.332031v-61.042969c0-1.125.058594-2.230468.144532-3.332031-10.609375-14.882813-27.996094-24.613281-47.621094-24.613281-32.242188 0-58.46875 26.226562-58.46875 58.46875 0 27.605468 19.238281 50.789062 45.007812 56.886718-11.554687 5.582032-22.738281 11.96875-33.484374 19.132813-25.445313-15.769531-42.429688-43.949219-42.429688-76.019531 0-49.28125 40.09375-89.375 89.375-89.375 24.601562 0 46.910156 9.996094 63.089844 26.132812.214844-.175781.425781-.363281.644531-.535156-.210937-1.722656-.316406-3.46875-.316406-5.230469 0-11.265625 4.386719-21.859375 12.351562-29.824219l22.1875-22.1875-10.050781-10.050781c-8.578125-8.578125-21.585938-10.09375-31.730469-4.546875-3.25-11.097656-13.523437-19.222656-25.652343-19.222656h-61.046876c-12.132812 0-22.402343 8.125-25.652343 19.222656-10.144531-5.546875-23.152344-4.03125-31.730469 4.546875l-43.167969 43.164063c-8.578125 8.578125-10.09375 21.585937-4.546875 31.730468-11.097656 3.25-19.222656 13.519532-19.222656 25.652344v61.046875c0 12.128907 8.125 22.402344 19.222656 25.652344-5.546875 10.144531-4.03125 23.152344 4.546875 31.730469l43.167969 43.164062c.703125.714844 7.253906 7.347656 15.730469 15.933594 50.078125-44.171875 113.832031-68.34375 181.058593-68.34375zm108.886719-168.035156c49.28125 0 89.371094 40.09375 89.371094 89.375 0 32.070312-16.984375 60.25-42.429687 76.019531-10.746094-7.164063-21.929688-13.550781-33.484376-19.132813 25.769532-6.097656 45.007813-29.28125 45.007813-56.886718 0-32.238282-26.226563-58.46875-58.464844-58.46875-32.242187 0-58.46875 26.226562-58.46875 58.46875 0 13.605468 4.683594 26.128906 12.507813 36.074218-12.507813-2.847656-25.261719-4.839843-38.1875-5.964843-3.378906-9.414063-5.226563-19.550781-5.226563-30.109375 0-49.28125 40.09375-89.375 89.375-89.375zm0 0"/><path d="m104.425781 323.875c11.292969 11.4375 20.75 21.011719 20.75 21.015625l14.183594 14.363281c34.660156-29.589844 78.273437-45.730468 124.277344-45.730468 46.035156 0 89.667969 16.160156 124.335937 45.777343l14.191406-14.355469s9.503907-9.617187 20.84375-21.089843c-91.832031-80.011719-226.757812-80.003907-318.582031.019531zm0 0"/></svg>